REM MD5 13e5c8c9b8f095d7465d232faf3fd354
FILE "Hyper PlayStation Re-mix 1999 No. 5 (Japan).bin" BINARY
  TRACK 01 MODE2/2352
    INDEX 01 00:00:00
  TRACK 02 AUDIO
    INDEX 00 49:13:57
    INDEX 01 49:16:57
  TRACK 03 AUDIO
    INDEX 00 49:21:32
    INDEX 01 49:24:32
REM LEADOUT 52:56:22
